<?xml version="1.0" encoding="utf-8" ?>
<svg xmlns="http://www.w3.org/2000/svg" xmlns:xlink="http://www.w3.org/1999/xlink" width="1024" height="1024">
	<path fill="#FEFEFE" d="M0 0L1024 0L1024 1024L0 1024L0 0Z"/>
	<path fill="#132638" d="M244.103 12.2434L262 12.1529L661.855 12.1243L765.75 12.1418C791.424 12.1179 818.587 10.2024 843.843 15.2474C886.09 23.6865 924.178 43.5105 954.696 73.9624C983.024 102.229 1002.13 140.173 1009.84 179.265C1015.11 205.939 1013.37 233.404 1013.39 260.453L1013.11 376.115L1012.83 804.769C1012.8 863.52 993.949 912.102 952.04 953.851C917.546 988.213 873.21 1007.64 824.818 1011.79C810.334 1013.04 795.71 1012.6 781.187 1012.56L362.75 1012.52L254.178 1012.5C227.784 1012.5 200.087 1014.37 174.091 1009.12Q170.462 1008.38 166.862 1007.51Q163.261 1006.64 159.695 1005.64Q156.129 1004.63 152.602 1003.5Q149.075 1002.37 145.592 1001.11Q142.108 999.856 138.672 998.471Q135.237 997.087 131.854 995.578Q128.471 994.069 125.145 992.439Q121.82 990.808 118.556 989.057Q115.291 987.307 112.093 985.438Q108.895 983.57 105.767 981.586Q102.639 979.603 99.5847 977.507Q96.5309 975.411 93.5554 973.205Q90.5798 970.999 87.6865 968.686Q84.7933 966.373 81.9861 963.957Q79.1789 961.54 76.4616 959.023Q73.7442 956.506 71.1203 953.892Q69.3709 952.166 67.6643 950.397Q65.9578 948.629 64.2951 946.819Q62.6324 945.009 61.0146 943.159Q59.3968 941.309 57.8249 939.42Q56.2529 937.531 54.7278 935.604Q53.2026 933.676 51.7252 931.712Q50.2478 929.748 48.8189 927.749Q47.3901 925.749 46.0107 923.715Q44.6313 921.681 43.3023 919.614Q41.9732 917.547 40.6952 915.447Q39.4172 913.348 38.191 911.218Q36.9649 909.088 35.7913 906.929Q34.6178 904.769 33.4976 902.582Q32.3773 900.394 31.311 898.18Q30.2448 895.966 29.2331 893.726Q28.2215 891.486 27.265 889.222Q26.3086 886.958 25.408 884.672Q24.5073 882.385 23.6631 880.077Q22.8188 877.769 22.0313 875.441Q21.2439 873.113 20.5138 870.766Q19.7836 868.419 19.1113 866.056Q18.4389 863.692 17.8247 861.312Q17.2105 858.932 16.6549 856.538Q16.0992 854.144 15.6024 851.737Q15.1056 849.33 14.668 846.912Q14.2304 844.494 13.8522 842.065Q13.474 839.637 13.1555 837.2Q12.8369 834.763 12.5782 832.319Q12.3196 829.875 12.1209 827.426Q11.9222 824.976 11.7836 822.522Q11.6451 820.068 11.5667 817.612Q11.4884 815.156 11.4703 812.698L11.3701 417.056L11.2561 286.152L11.2874 235.775C11.2662 215.584 10.5961 195.392 14.6126 175.489C22.3998 136.903 42.637 100.879 70.1217 72.9459C102.77 39.7652 149.216 18.4009 195.372 13.4219C211.424 11.6904 227.955 12.3718 244.103 12.2434Z"/>
	<path fill="#1B6B42" d="M138.876 892.879C138.674 892.819 138.473 892.755 138.27 892.7C137.81 892.576 137.41 892.516 136.982 892.322C132.178 890.134 128.347 883.898 126.325 879.211Q125.949 878.328 125.616 877.427Q125.284 876.526 124.996 875.61Q124.707 874.694 124.464 873.765Q124.221 872.836 124.024 871.896Q123.826 870.957 123.675 870.008Q123.524 869.06 123.419 868.106Q123.314 867.151 123.256 866.193Q123.198 865.234 123.187 864.274Q123.176 863.314 123.212 862.354Q123.247 861.395 123.33 860.438Q123.413 859.481 123.542 858.53Q123.671 857.578 123.846 856.634Q124.022 855.69 124.243 854.756Q124.465 853.822 124.732 852.899Q124.998 851.977 125.31 851.068Q125.621 850.16 125.977 849.268C131.331 836.16 141.199 831.37 153.555 826.257C154.177 822.071 153.809 817.439 153.801 813.199C153.781 801.296 153.243 789.422 153.259 777.521L153.234 641.796C153.23 633.903 153.858 550.379 153.467 549.86C151.517 547.275 134.199 547.561 124.898 528.573C120.104 518.783 119.569 508.426 123.138 498.138C126.762 487.688 136.703 480.149 146.94 476.7C149.04 475.992 151.2 476.248 153.201 475.263C153.695 458.433 153.203 441.545 153.307 424.718C153.399 409.642 153.879 394.529 153.755 379.454C153.69 371.473 152.67 363.547 152.764 355.563C152.817 351.123 153.419 346.721 153.54 342.288C153.837 331.468 153.773 320.576 153.76 309.751C153.749 301.364 152.835 292.961 152.954 284.602C153.036 278.849 153.649 273.109 153.727 267.352C153.942 251.641 153.749 235.904 153.749 220.19C153.749 213.859 154.174 207.343 153.929 201.037C153.91 200.557 154.036 200.011 153.783 199.601C153.056 198.42 136.611 190.521 132.785 186.537C126.587 180.082 121.943 168.322 122.258 159.379C122.611 149.355 126.535 138.913 133.955 132.024C141.21 125.287 149.356 123.447 158.812 122.44C160.915 122.216 163.357 121.603 165.45 121.76C176.155 122.564 188.307 131.646 192.954 141.033C194.794 144.749 195.851 150.175 198.544 153.264C205.063 154.212 213.447 153.278 220.221 153.299L276 153.384Q375.247 152.566 474.493 153.407C475.154 152.885 478.65 140.325 479.79 137.898C483.335 130.347 492.043 125.07 499.703 122.382C509.051 119.103 518.46 118.901 527.443 123.268C542.484 130.58 543.931 138.565 549.006 153.121C549.235 153.316 549.418 153.585 549.694 153.706C549.818 153.76 628.926 153.089 638.89 153.345L641.61 154.306C630.587 154.085 549.324 154.844 547.871 154.258L547.409 153.082Q547.225 151.255 546.855 149.456Q546.484 147.658 545.931 145.906Q545.378 144.155 544.648 142.47Q543.918 140.785 543.019 139.184Q542.592 138.411 542.126 137.659Q541.661 136.908 541.159 136.181Q540.657 135.454 540.119 134.752Q539.582 134.051 539.01 133.378Q538.438 132.704 537.833 132.06Q537.229 131.415 536.592 130.802Q535.956 130.189 535.291 129.608Q534.625 129.027 533.931 128.479Q533.237 127.932 532.517 127.421Q531.796 126.909 531.051 126.433Q530.307 125.958 529.539 125.52Q528.771 125.083 527.983 124.684Q527.194 124.285 526.387 123.925Q525.58 123.566 524.755 123.248Q523.931 122.929 523.092 122.652Q522.253 122.375 521.401 122.14C512.157 119.684 501.636 121.456 493.439 126.286C485.482 130.975 480.125 138.061 477.774 146.966C476.868 149.172 476.5 151.791 475.964 154.12Q414.96 153.873 353.958 154.484L196.391 154.466C195.523 149.296 193.911 144.269 191.186 139.767C186.122 131.398 178.667 126.299 169.247 124.005C169.495 124.208 169.741 124.415 169.993 124.614C171.896 126.119 175.045 126.24 175.918 128.849C175.709 129.981 175.893 129.85 174.958 130.711C174.809 130.626 174.67 130.517 174.51 130.454C173.312 129.983 166.838 130.222 165.402 130.527C155.686 130.261 147.293 131.367 139.912 138.465Q139.382 138.977 138.878 139.515Q138.373 140.052 137.895 140.613Q137.417 141.174 136.967 141.758Q136.516 142.342 136.095 142.946Q135.673 143.551 135.281 144.175Q134.889 144.799 134.528 145.442Q134.167 146.084 133.837 146.743Q133.507 147.403 133.209 148.077Q132.911 148.751 132.646 149.439Q132.382 150.127 132.15 150.827Q131.919 151.527 131.722 152.237Q131.525 152.947 131.362 153.666Q131.199 154.385 131.071 155.111Q130.943 155.837 130.851 156.568Q130.758 157.299 130.701 158.034Q130.644 158.769 130.622 159.506C130.423 167.402 133.783 175.099 139.3 180.68Q141.087 182.492 143.027 184.14C143.789 185.478 144.565 186.941 144.081 188.533C143.686 189.831 143.329 189.979 142.242 190.653C141.21 190.666 140.523 190.515 139.551 190.173C144.193 193.67 148.919 196.012 154.61 197.25C155.28 237.38 154.636 277.494 154.615 317.623L155.035 476.244C150.753 476.807 146.859 477.951 142.878 479.618C136.99 482.563 131.587 486.239 128.118 491.999C122.795 500.055 120.488 508.839 122.498 518.391C124.554 528.166 130.33 537.194 138.813 542.565C143.78 545.709 149.142 547.608 154.93 548.559C154.737 641.576 155.885 734.628 154.786 827.641C152.627 828.244 150.161 828.702 148.203 829.798C147.33 831.221 147.259 831.393 147.603 833.028C147.813 834.027 148.464 835.045 149.403 835.523C150.042 835.849 150.923 835.777 151.62 835.789C144.262 838.78 139.859 842.696 135.247 849.042L134.921 848.648L135.305 847.459C135.077 846.254 134.78 845.928 134.056 844.976C133.343 844.722 132.783 844.504 132.014 844.645C130.408 844.941 130.421 845.324 129.554 846.62L129.227 845.649C124.52 851.999 123.26 861.332 124.45 868.984C126.012 879.026 131.42 886.334 138.876 892.879Z"/>
	<path fill="#6EFFD0" d="M129.227 845.649C129.294 845.478 129.345 845.299 129.429 845.135C133.045 838.082 140.749 832.055 148.203 829.798C147.33 831.221 147.259 831.393 147.603 833.028C147.813 834.027 148.464 835.045 149.403 835.523C150.042 835.849 150.923 835.777 151.62 835.789C144.262 838.78 139.859 842.696 135.247 849.042L134.921 848.648L135.305 847.459C135.077 846.254 134.78 845.928 134.056 844.976C133.343 844.722 132.783 844.504 132.014 844.645C130.408 844.941 130.421 845.324 129.554 846.62L129.227 845.649Z"/>
	<path fill="#6EFFD0" d="M139.551 190.173C135.504 187.893 131.509 183.428 129.057 179.516Q128.582 178.749 128.146 177.961Q127.709 177.172 127.312 176.362Q126.914 175.553 126.556 174.726Q126.199 173.898 125.882 173.054Q125.565 172.21 125.29 171.351Q125.015 170.493 124.782 169.622Q124.549 168.751 124.358 167.869Q124.168 166.988 124.021 166.098Q123.874 165.209 123.771 164.313Q123.667 163.418 123.608 162.518Q123.548 161.618 123.532 160.717Q123.517 159.815 123.545 158.914Q123.573 158.013 123.646 157.114Q123.718 156.216 123.834 155.321Q123.95 154.427 124.11 153.54Q124.269 152.653 124.472 151.774Q124.688 150.873 124.947 149.984Q125.207 149.094 125.51 148.219Q125.813 147.343 126.159 146.484Q126.505 145.624 126.893 144.783Q127.28 143.941 127.709 143.12Q128.138 142.299 128.606 141.499Q129.075 140.7 129.582 139.925Q130.089 139.15 130.634 138.4Q131.179 137.651 131.76 136.929Q132.341 136.208 132.957 135.516Q133.573 134.824 134.222 134.163Q134.871 133.502 135.552 132.873Q136.233 132.245 136.944 131.651Q137.655 131.057 138.394 130.499Q139.133 129.94 139.899 129.419Q140.665 128.898 141.456 128.415C149.839 123.232 159.675 121.778 169.247 124.005C169.495 124.208 169.741 124.415 169.993 124.614C171.896 126.119 175.045 126.24 175.918 128.849C175.709 129.981 175.893 129.85 174.958 130.711C174.809 130.626 174.67 130.517 174.51 130.454C173.312 129.983 166.838 130.222 165.402 130.527C155.686 130.261 147.293 131.367 139.912 138.465Q139.382 138.977 138.878 139.515Q138.373 140.052 137.895 140.613Q137.417 141.174 136.967 141.758Q136.516 142.342 136.095 142.946Q135.673 143.551 135.281 144.175Q134.889 144.799 134.528 145.442Q134.167 146.084 133.837 146.743Q133.507 147.403 133.209 148.077Q132.911 148.751 132.646 149.439Q132.382 150.127 132.15 150.827Q131.919 151.527 131.722 152.237Q131.525 152.947 131.362 153.666Q131.199 154.385 131.071 155.111Q130.943 155.837 130.851 156.568Q130.758 157.299 130.701 158.034Q130.644 158.769 130.622 159.506C130.423 167.402 133.783 175.099 139.3 180.68Q141.087 182.492 143.027 184.14C143.789 185.478 144.565 186.941 144.081 188.533C143.686 189.831 143.329 189.979 142.242 190.653C141.21 190.666 140.523 190.515 139.551 190.173Z"/>
	<defs>
		<linearGradient id="gradient_0" gradientUnits="userSpaceOnUse" x1="123.09005" y1="494.39932" x2="913.22107" y2="528.67816">
			<stop offset="0" stop-color="#6EFFD0"/>
			<stop offset="1" stop-color="#23FFFD"/>
		</linearGradient>
	</defs>
	<path fill="url(#gradient_0)" d="M477.774 146.966C480.125 138.061 485.482 130.975 493.439 126.286C501.636 121.456 512.157 119.684 521.401 122.14Q522.253 122.375 523.092 122.652Q523.931 122.929 524.755 123.248Q525.579 123.566 526.387 123.925Q527.194 124.285 527.983 124.684Q528.771 125.083 529.539 125.52Q530.307 125.958 531.051 126.433Q531.796 126.909 532.517 127.421Q533.237 127.932 533.931 128.479Q534.625 129.027 535.291 129.608Q535.956 130.189 536.592 130.802Q537.229 131.415 537.833 132.06Q538.438 132.704 539.01 133.378Q539.582 134.051 540.119 134.752Q540.657 135.454 541.159 136.181Q541.661 136.908 542.126 137.659Q542.592 138.411 543.019 139.184Q543.918 140.785 544.648 142.47Q545.378 144.155 545.931 145.906Q546.484 147.658 546.855 149.456Q547.225 151.255 547.409 153.082L547.871 154.258C549.324 154.844 630.587 154.085 641.61 154.306L638.89 153.345L781.847 153.259C787.099 153.268 819.137 154.362 821.943 153.347C822.422 153.174 823.28 152.43 823.661 152.061C826.982 148.851 829.598 143.615 832.172 139.758C840.233 127.679 851.827 121.802 866.279 121.769C875.5 121.748 886.105 128.951 891.926 135.605C898.563 143.191 901.268 152.254 900.555 162.271C899.774 173.233 895.389 181.809 886.994 188.897C884.792 190.757 882.201 192.386 880.199 194.449C875.488 199.302 874.677 208.15 872.088 214.379C871.662 215.403 870.841 218.268 869.775 218.174C869.74 227.364 868.206 249.248 871.411 256.936C873.041 260.844 872.269 270.193 872.394 274.84C872.585 281.914 874.227 288.979 874.25 296.015C874.27 302.432 873.943 310.695 873.438 317.042C873.043 321.993 872.264 326.927 872.245 331.902C872.201 343.477 873.278 355.071 872.751 366.669C872.44 373.502 871.71 380.565 870.904 387.361C870.556 390.299 869.822 393.003 869.755 396.002C869.305 416.19 870.255 436.443 870.234 456.649C870.231 459.633 869.872 475.293 870.819 475.677C871.601 475.994 872.179 475.772 872.994 475.7C876.94 475.352 881.969 478.02 885.429 479.79Q886.155 480.195 886.86 480.635Q887.565 481.075 888.248 481.549Q888.931 482.022 889.591 482.528Q890.25 483.034 890.884 483.572Q891.518 484.109 892.126 484.676Q892.733 485.244 893.312 485.84Q893.892 486.436 894.441 487.059Q894.991 487.683 895.51 488.332Q896.029 488.981 896.516 489.655Q897.003 490.329 897.457 491.025Q897.91 491.721 898.33 492.439Q898.749 493.156 899.134 493.893Q899.518 494.63 899.866 495.385Q900.215 496.14 900.526 496.911Q900.837 497.681 901.111 498.466Q901.385 499.251 901.62 500.048C904.476 509.992 903.467 520.632 898.373 529.656C894.515 536.491 886.934 543.908 879.213 546.053C877.158 546.624 874.327 546.889 872.803 548.373C872.64 552.9 869.773 553.081 869.716 554.763C869.4 564.183 869.746 573.713 869.747 583.144L869.748 641.117L869.689 825.692L870.111 825.857L870.164 826.432C872.776 827.695 875.786 827.409 878.496 828.465C887.744 832.069 895.392 841.356 898.608 850.56C901.746 859.538 901.65 870.741 897.413 879.38C892.947 888.487 885.431 895.454 875.776 898.718C870.606 900.466 861.886 902.361 856.853 899.724C856.269 899.417 856.226 899.326 855.823 898.922C852.029 897.756 848.67 896.471 845.279 894.381C835.893 888.596 830.508 879.698 827.975 869.152L547.727 869.314C546.975 875.476 545.132 881.49 541.684 886.694C536.428 894.627 527.631 900.627 518.266 902.41Q517.393 902.568 516.513 902.682Q515.633 902.797 514.748 902.867Q513.864 902.938 512.977 902.965Q512.09 902.991 511.203 902.974Q510.316 902.956 509.43 902.895Q508.545 902.834 507.664 902.728Q506.783 902.623 505.908 902.474Q505.034 902.326 504.167 902.134Q503.301 901.942 502.445 901.707Q501.589 901.472 500.746 901.195Q499.903 900.918 499.075 900.6Q498.247 900.281 497.435 899.922Q496.624 899.563 495.831 899.164Q495.039 898.766 494.267 898.328Q493.495 897.89 492.746 897.415Q491.997 896.939 491.272 896.427C481.453 889.582 477.81 880.486 475.793 869.082Q405.902 869.791 336.009 869.254C289.72 869.321 243.325 869.935 197.048 869.119C195.986 873.883 194.698 878.121 192.201 882.355C187.226 890.795 178.831 896.678 169.393 899.119C157.775 902.123 148.853 898.754 138.876 892.879C131.42 886.334 126.012 879.026 124.45 868.984C123.26 861.332 124.52 851.999 129.227 845.649L129.554 846.62C130.421 845.324 130.408 844.941 132.014 844.645C132.783 844.504 133.343 844.722 134.056 844.976C134.78 845.928 135.077 846.254 135.305 847.459L134.921 848.648L135.247 849.042C139.859 842.696 144.262 838.78 151.62 835.789C150.923 835.777 150.042 835.849 149.403 835.523C148.464 835.045 147.813 834.027 147.603 833.028C147.259 831.393 147.33 831.221 148.203 829.798C150.161 828.702 152.627 828.244 154.786 827.641C155.885 734.628 154.737 641.576 154.93 548.559C149.142 547.608 143.78 545.709 138.813 542.565C130.33 537.194 124.554 528.166 122.498 518.391C120.488 508.839 122.795 500.055 128.118 491.999C131.587 486.239 136.99 482.563 142.878 479.618C146.859 477.951 150.753 476.807 155.035 476.244L154.615 317.623C154.636 277.494 155.28 237.38 154.61 197.25C148.919 196.012 144.193 193.67 139.551 190.173C140.523 190.515 141.21 190.666 142.242 190.653C143.329 189.979 143.686 189.831 144.081 188.533C144.565 186.941 143.789 185.478 143.027 184.14Q141.087 182.492 139.3 180.68C133.783 175.099 130.423 167.402 130.622 159.506Q130.644 158.769 130.701 158.034Q130.758 157.299 130.851 156.568Q130.943 155.837 131.071 155.111Q131.199 154.385 131.362 153.666Q131.524 152.947 131.722 152.237Q131.919 151.527 132.15 150.827Q132.382 150.127 132.646 149.439Q132.911 148.751 133.209 148.077Q133.507 147.403 133.837 146.743Q134.167 146.084 134.528 145.442Q134.889 144.799 135.281 144.175Q135.673 143.551 136.095 142.946Q136.516 142.342 136.967 141.758Q137.417 141.174 137.895 140.613Q138.373 140.052 138.878 139.515Q139.382 138.977 139.912 138.465C147.293 131.367 155.686 130.261 165.402 130.527C166.838 130.222 173.312 129.983 174.51 130.454C174.67 130.517 174.809 130.626 174.958 130.711C175.893 129.85 175.709 129.981 175.918 128.849C175.045 126.24 171.896 126.119 169.993 124.614C169.741 124.415 169.495 124.208 169.247 124.005C178.667 126.299 186.122 131.398 191.186 139.767C193.911 144.269 195.523 149.296 196.391 154.466L353.958 154.484Q414.96 153.873 475.964 154.12C476.5 151.791 476.868 149.172 477.774 146.966Z"/>
	<path fill="#6EFFD0" d="M477.774 146.966C480.125 138.061 485.482 130.975 493.439 126.286C501.636 121.456 512.157 119.684 521.401 122.14Q522.253 122.375 523.092 122.652Q523.931 122.929 524.755 123.248Q525.579 123.566 526.387 123.925Q527.194 124.285 527.983 124.684Q528.771 125.083 529.539 125.52Q530.307 125.958 531.051 126.433Q531.796 126.909 532.517 127.421Q533.237 127.932 533.931 128.479Q534.625 129.027 535.291 129.608Q535.956 130.189 536.592 130.802Q537.229 131.415 537.833 132.06Q538.438 132.704 539.01 133.378Q539.582 134.051 540.119 134.752Q540.657 135.454 541.159 136.181Q541.661 136.908 542.126 137.659Q542.592 138.411 543.019 139.184Q543.918 140.785 544.648 142.47Q545.378 144.155 545.931 145.906Q546.484 147.658 546.855 149.456Q547.225 151.255 547.409 153.082C546.295 152.068 542.932 140.633 540.966 137.434C539.222 134.594 536.373 131.962 533.863 129.78C526.908 123.734 518.553 121.451 509.434 122.094C501.657 122.642 491.972 126.723 486.811 132.653C487.853 132.928 488.043 132.768 488.704 133.678C487.92 135.127 486.499 136.222 485.009 136.891C484.561 137.093 484.101 137.268 483.657 137.479C481.155 138.664 479.539 143.755 478.671 146.289L478.437 146.987L477.774 146.966Z"/>
	<path fill="#1C4957" d="M638.89 153.345L781.847 153.259C787.099 153.268 819.137 154.362 821.943 153.347C822.422 153.174 823.28 152.43 823.661 152.061C826.982 148.851 829.598 143.615 832.172 139.758C840.233 127.679 851.827 121.802 866.279 121.769C875.5 121.748 886.105 128.951 891.926 135.605C898.563 143.191 901.268 152.254 900.555 162.271C899.774 173.233 895.389 181.809 886.994 188.897C884.792 190.757 882.201 192.386 880.199 194.449C875.488 199.302 874.677 208.15 872.088 214.379C871.662 215.403 870.841 218.268 869.775 218.174C869.74 227.364 868.206 249.248 871.411 256.936C873.041 260.844 872.269 270.193 872.394 274.84C872.585 281.914 874.227 288.979 874.25 296.015C874.27 302.432 873.943 310.695 873.438 317.042C873.043 321.993 872.264 326.927 872.245 331.902C872.201 343.477 873.278 355.071 872.751 366.669C872.44 373.502 871.71 380.565 870.904 387.361C870.556 390.299 869.822 393.003 869.755 396.002C869.305 416.19 870.255 436.443 870.234 456.649C870.231 459.633 869.872 475.293 870.819 475.677C871.601 475.994 872.179 475.772 872.994 475.7C876.94 475.352 881.969 478.02 885.429 479.79Q886.155 480.195 886.86 480.635Q887.565 481.075 888.248 481.549Q888.931 482.022 889.591 482.528Q890.25 483.034 890.884 483.572Q891.518 484.109 892.126 484.676Q892.733 485.244 893.312 485.84Q893.892 486.436 894.441 487.059Q894.991 487.683 895.51 488.332Q896.029 488.981 896.516 489.655Q897.003 490.329 897.457 491.025Q897.91 491.721 898.33 492.439Q898.749 493.156 899.134 493.893Q899.518 494.63 899.866 495.385Q900.215 496.14 900.526 496.911Q900.837 497.681 901.111 498.466Q901.385 499.251 901.62 500.048C904.476 509.992 903.467 520.632 898.373 529.656C894.515 536.491 886.934 543.908 879.213 546.053C877.158 546.624 874.327 546.889 872.803 548.373C872.64 552.9 869.773 553.081 869.716 554.763C869.4 564.183 869.746 573.713 869.747 583.144L869.748 641.117L869.689 825.692L870.111 825.857L870.164 826.432C872.776 827.695 875.786 827.409 878.496 828.465C887.744 832.069 895.392 841.356 898.608 850.56C901.746 859.538 901.65 870.741 897.413 879.38C892.947 888.487 885.431 895.454 875.776 898.718C870.606 900.466 861.886 902.361 856.853 899.724C856.269 899.417 856.226 899.326 855.823 898.922C865.638 900.249 875.067 899.283 883.532 893.78C891.525 888.583 897.218 879.829 899.105 870.518C901.026 861.041 898.846 850.421 893.428 842.421C887.413 833.539 879.117 829.125 868.8 827.098L868.816 547.216C870.543 547.085 872.305 546.859 874.001 546.498C882.915 544.605 891.083 538.889 896.054 531.283Q896.565 530.508 897.036 529.708Q897.507 528.908 897.938 528.085Q898.368 527.262 898.757 526.419Q899.146 525.576 899.492 524.715Q899.838 523.853 900.141 522.975Q900.444 522.098 900.702 521.206Q900.96 520.314 901.173 519.41Q901.387 518.507 901.555 517.594Q901.722 516.68 901.844 515.76Q901.966 514.84 902.042 513.914Q902.118 512.989 902.147 512.061Q902.176 511.133 902.159 510.205Q902.142 509.276 902.078 508.35Q902.014 507.424 901.904 506.502Q901.794 505.58 901.638 504.665Q901.483 503.749 901.281 502.843C899.171 493.339 893.347 485.938 885.214 480.777C879.861 478.097 874.956 476.685 868.972 476.331L868.888 217.489Q868.971 206.901 868.647 196.318C871.657 195.691 874.71 194.998 877.541 193.775C886.553 189.88 893.601 181.886 897.153 172.804Q897.479 171.969 897.762 171.12Q898.046 170.27 898.287 169.407Q898.528 168.544 898.726 167.67Q898.924 166.796 899.078 165.914Q899.232 165.031 899.342 164.142Q899.452 163.253 899.517 162.359Q899.583 161.466 899.604 160.57Q899.625 159.674 899.601 158.779Q899.578 157.883 899.509 156.99Q899.441 156.096 899.328 155.207Q899.216 154.319 899.059 153.436Q898.902 152.554 898.702 151.681Q898.502 150.808 898.258 149.946Q898.014 149.084 897.728 148.235Q897.442 147.386 897.113 146.552Q896.785 145.718 896.416 144.902Q896.04 144.052 895.623 143.221Q895.205 142.39 894.747 141.582Q894.288 140.773 893.79 139.988Q893.292 139.203 892.755 138.444Q892.218 137.686 891.643 136.954Q891.069 136.223 890.459 135.522Q889.849 134.82 889.205 134.15Q888.56 133.48 887.883 132.843Q887.206 132.206 886.498 131.603Q885.79 131.001 885.053 130.435Q884.315 129.868 883.551 129.339Q882.786 128.811 881.996 128.321Q881.206 127.831 880.392 127.381Q879.579 126.931 878.744 126.523Q877.909 126.114 877.054 125.748Q876.2 125.381 875.328 125.058Q874.545 124.762 873.749 124.505Q872.953 124.248 872.145 124.031Q871.337 123.815 870.519 123.638Q869.701 123.462 868.875 123.326Q868.05 123.191 867.218 123.097Q866.387 123.003 865.552 122.95Q864.717 122.897 863.88 122.886Q863.043 122.875 862.207 122.906Q861.371 122.936 860.538 123.009Q859.704 123.081 858.875 123.194Q858.046 123.308 857.224 123.463Q856.401 123.618 855.588 123.813Q854.774 124.008 853.972 124.244Q853.169 124.48 852.379 124.755Q851.589 125.031 850.813 125.345Q850.038 125.659 849.279 126.012C836.831 131.835 831.073 142.105 826.66 154.493L641.61 154.306L638.89 153.345Z"/>
	<path fill="#1C4957" d="M509.65 128.155Q510.328 128.087 511.008 128.052Q511.688 128.017 512.368 128.014Q513.049 128.011 513.73 128.041Q514.41 128.07 515.088 128.133Q515.766 128.195 516.44 128.289Q517.115 128.384 517.784 128.511Q518.453 128.637 519.115 128.796Q519.777 128.954 520.431 129.144Q521.085 129.334 521.729 129.555Q522.373 129.776 523.006 130.027Q523.639 130.279 524.259 130.56Q524.879 130.842 525.484 131.153Q526.09 131.463 526.681 131.803Q527.271 132.142 527.844 132.509Q528.418 132.876 528.973 133.271Q529.528 133.665 530.064 134.085C536.245 138.954 539.925 146.518 540.878 154.243Q540.966 154.915 541.019 155.591Q541.073 156.267 541.092 156.945Q541.112 157.623 541.097 158.301Q541.082 158.979 541.032 159.655Q540.983 160.331 540.899 161.004Q540.815 161.677 540.697 162.345Q540.58 163.013 540.428 163.674Q540.277 164.335 540.092 164.987Q539.907 165.64 539.69 166.282Q539.472 166.924 539.222 167.555Q538.972 168.185 538.69 168.802Q538.409 169.419 538.096 170.02Q537.784 170.622 537.441 171.207Q537.099 171.793 536.727 172.36Q536.355 172.927 535.955 173.474Q535.554 174.022 535.127 174.548C529.943 181.04 522.84 184.757 514.649 185.721C507.077 186.3 500.111 184.738 494 180.08Q493.455 179.665 492.931 179.224Q492.407 178.783 491.906 178.317Q491.404 177.851 490.927 177.36Q490.449 176.869 489.996 176.355Q489.544 175.841 489.117 175.306Q488.69 174.77 488.291 174.214Q487.891 173.658 487.52 173.082Q487.148 172.507 486.806 171.914Q486.463 171.321 486.15 170.712Q485.838 170.103 485.556 169.479Q485.274 168.855 485.023 168.217Q484.772 167.58 484.553 166.931Q484.334 166.282 484.148 165.623Q483.961 164.964 483.808 164.297Q483.654 163.63 483.534 162.955Q483.414 162.281 483.327 161.602C482.266 153.874 484.203 145.435 489.045 139.253C494.015 132.906 501.789 129.227 509.65 128.155Z"/>
	<path fill="#6EFFD0" d="M510.114 148.058C511.748 147.99 513.311 147.942 514.88 148.481Q515.302 148.627 515.707 148.813Q516.112 148.999 516.497 149.224Q516.883 149.449 517.244 149.71Q517.606 149.971 517.94 150.266Q518.275 150.561 518.579 150.888Q518.883 151.214 519.155 151.568Q519.426 151.922 519.661 152.301Q519.897 152.68 520.094 153.08C521.245 155.45 521.323 158.281 520.401 160.74C519.109 164.185 516.649 165.634 513.414 166.983C511.745 167.02 510.182 167.027 508.592 166.448Q508.142 166.285 507.712 166.078Q507.281 165.87 506.874 165.619Q506.467 165.369 506.087 165.078Q505.708 164.787 505.36 164.459Q505.012 164.131 504.699 163.769Q504.387 163.407 504.113 163.016Q503.839 162.624 503.606 162.206Q503.374 161.788 503.185 161.349Q503 160.907 502.861 160.449Q502.722 159.99 502.63 159.52Q502.537 159.05 502.493 158.573Q502.448 158.096 502.451 157.617Q502.455 157.138 502.507 156.662Q502.559 156.186 502.658 155.717Q502.758 155.249 502.904 154.792Q503.05 154.336 503.241 153.897C504.601 150.717 507.041 149.304 510.114 148.058Z"/>
	<path fill="#1C4957" d="M863.185 483.145C870.295 482.737 876.792 483.213 882.972 487.289C889.228 491.415 893.746 498.398 895.185 505.739C896.728 513.604 894.781 521.974 890.233 528.536C885.24 535.741 878.224 538.825 869.971 540.458C863.01 541.015 856.957 540.255 850.96 536.307C844.39 531.981 839.349 524.696 837.904 516.942C836.544 509.644 838.402 501.911 842.584 495.824C847.513 488.648 854.713 484.579 863.185 483.145Z"/>
	<path fill="#6EFFD0" d="M864.561 502.552C866.28 502.602 867.909 502.764 869.515 503.426C871.983 504.443 874.056 506.503 874.987 509.014Q875.135 509.413 875.242 509.825Q875.35 510.236 875.417 510.657Q875.484 511.077 875.51 511.502Q875.536 511.926 875.52 512.352Q875.504 512.777 875.446 513.199Q875.389 513.62 875.29 514.034Q875.192 514.448 875.053 514.851Q874.915 515.253 874.738 515.64C873.338 518.659 870.978 519.954 867.995 521.096C866.404 521.14 864.797 521.224 863.273 520.686Q862.821 520.527 862.387 520.322Q861.954 520.117 861.544 519.869Q861.134 519.621 860.751 519.332Q860.369 519.042 860.018 518.716Q859.667 518.389 859.352 518.028Q859.037 517.667 858.76 517.275Q858.484 516.884 858.249 516.466Q858.014 516.048 857.823 515.608Q857.636 515.17 857.495 514.715Q857.354 514.259 857.26 513.792Q857.166 513.325 857.121 512.851Q857.075 512.377 857.078 511.9Q857.081 511.424 857.132 510.95Q857.184 510.476 857.284 510.01Q857.383 509.545 857.53 509.091Q857.677 508.638 857.869 508.202C859.232 505.098 861.511 503.706 864.561 502.552Z"/>
	<path fill="#1C4957" d="M508.292 838.157C514.824 837.722 520.657 838.129 526.464 841.608C533.211 845.649 538.603 852.744 540.436 860.408C542.211 867.83 540.396 876.105 536.371 882.523C531.696 889.977 524.553 894.103 516.136 895.989C508.767 896.864 501.932 895.289 495.869 890.97C489.121 886.161 484.107 879.145 482.924 870.808C481.84 863.165 484.081 855.057 488.768 848.935C493.653 842.555 500.5 839.238 508.292 838.157Z"/>
	<path fill="#6EFFD0" d="M510.513 857.082C511.709 857.162 513.039 857.39 514.156 857.837C516.577 858.806 518.68 861.063 519.477 863.54Q519.609 863.947 519.699 864.366Q519.789 864.784 519.835 865.21Q519.881 865.635 519.884 866.063Q519.886 866.491 519.845 866.917Q519.803 867.343 519.718 867.763Q519.633 868.182 519.505 868.591Q519.378 869 519.208 869.393Q519.039 869.786 518.831 870.16C517.294 872.915 514.825 873.994 511.939 874.848C510.734 874.76 509.47 874.652 508.308 874.298C506.092 873.624 504.108 871.888 503.183 869.767C502.273 867.678 502.414 865.315 503.298 863.241C504.709 859.926 507.287 858.353 510.513 857.082Z"/>
	<path fill="#1C4957" d="M128.118 491.999C131.587 486.239 136.99 482.563 142.878 479.618C144.751 481.063 146.103 482.142 146.802 484.498L148.207 483.801C148.566 484.402 148.517 484.128 148.537 484.569C157.148 482.453 164.42 482.413 172.238 487.123C178.478 490.882 183.166 496.221 184.908 503.454C186.86 511.561 185.977 521.133 181.493 528.269C177.554 534.537 171.205 538.59 164 540.067C156.01 541.705 147.889 539.897 141.2 535.296Q140.613 534.899 140.046 534.472Q139.479 534.045 138.935 533.591Q138.39 533.136 137.869 532.655Q137.348 532.174 136.853 531.667Q136.357 531.159 135.887 530.628Q135.417 530.097 134.974 529.542Q134.532 528.988 134.118 528.412Q133.704 527.836 133.319 527.24Q132.935 526.644 132.581 526.03Q132.227 525.415 131.904 524.783Q131.582 524.151 131.292 523.504Q131.001 522.857 130.744 522.196Q130.486 521.535 130.263 520.862Q130.039 520.189 129.849 519.506Q129.66 518.822 129.505 518.13Q129.35 517.438 129.23 516.739C128.051 509.74 129.553 503.383 132.943 497.277C132.633 495.009 129.737 494.975 128.118 491.999Z"/>
	<path fill="#6EFFD0" d="M128.118 491.999C131.587 486.239 136.99 482.563 142.878 479.618C144.751 481.063 146.103 482.142 146.802 484.498L148.207 483.801C148.566 484.402 148.517 484.128 148.537 484.569C141.833 487.732 137.115 491.016 132.943 497.277C132.633 495.009 129.737 494.975 128.118 491.999Z"/>
	<path fill="#6EFFD0" d="M156.205 503.554Q157.29 503.538 158.364 503.698Q159.438 503.857 160.472 504.188C162.72 504.927 164.784 506.631 165.866 508.738C167.001 510.947 167.06 513.514 166.163 515.816C164.838 519.218 162.315 520.399 159.149 521.746C157.201 522.055 155.576 522.049 153.741 521.229Q153.347 521.049 152.972 520.83Q152.598 520.611 152.247 520.356Q151.896 520.1 151.573 519.812Q151.249 519.523 150.956 519.203Q150.663 518.883 150.403 518.536Q150.143 518.189 149.92 517.817Q149.696 517.446 149.51 517.054Q149.325 516.661 149.179 516.253Q149.004 515.777 148.879 515.285Q148.754 514.794 148.68 514.292Q148.606 513.791 148.584 513.284Q148.562 512.777 148.591 512.271Q148.621 511.765 148.702 511.264Q148.783 510.764 148.915 510.274Q149.047 509.785 149.229 509.311Q149.41 508.838 149.639 508.385C151.021 505.642 153.457 504.552 156.205 503.554Z"/>
	<path fill="#1C4957" d="M860.906 130.196C867.592 129.946 873.787 131.162 879.449 134.894C886.164 139.318 890.443 146.272 892.026 154.094C893.599 161.864 892.33 169.708 887.856 176.325C882.749 183.88 875.42 187.978 866.609 189.677C858.605 189.777 851.808 187.949 845.505 182.915C839.241 177.913 834.947 170.573 834.198 162.534Q834.135 161.792 834.108 161.048Q834.08 160.304 834.089 159.559Q834.097 158.814 834.141 158.071Q834.184 157.327 834.263 156.587Q834.343 155.846 834.457 155.111Q834.572 154.375 834.721 153.645Q834.871 152.916 835.055 152.194Q835.239 151.472 835.458 150.76Q835.676 150.049 835.928 149.348Q836.181 148.647 836.466 147.959Q836.752 147.271 837.07 146.598Q837.388 145.925 837.737 145.267Q838.087 144.61 838.468 143.97Q838.849 143.33 839.26 142.709Q839.67 142.088 840.111 141.487Q840.551 140.886 841.019 140.307C846.151 134.003 853.002 131.026 860.906 130.196Z"/>
	<path fill="#6EFFD0" d="M861.559 153.045C862.533 153.023 863.53 152.99 864.5 153.09C866.891 153.336 869.306 154.75 870.665 156.734C871.914 158.558 872.165 160.759 871.673 162.883C870.895 166.244 868.608 167.739 865.82 169.445C864.673 169.54 863.472 169.662 862.334 169.443C859.933 168.98 857.595 167.489 856.38 165.34C855.259 163.357 855.103 160.954 855.831 158.807C856.846 155.813 858.893 154.485 861.559 153.045Z"/>
	<path fill="#1C4957" d="M143.027 184.14Q141.087 182.492 139.3 180.68C133.783 175.099 130.423 167.402 130.622 159.506Q130.644 158.769 130.701 158.034Q130.758 157.299 130.851 156.568Q130.943 155.837 131.071 155.111Q131.199 154.385 131.362 153.666Q131.524 152.947 131.722 152.237Q131.919 151.527 132.15 150.827Q132.382 150.127 132.646 149.439Q132.911 148.751 133.209 148.077Q133.507 147.403 133.837 146.743Q134.167 146.084 134.528 145.442Q134.889 144.799 135.281 144.175Q135.673 143.551 136.095 142.946Q136.516 142.342 136.967 141.758Q137.417 141.174 137.895 140.613Q138.373 140.052 138.878 139.515Q139.382 138.977 139.912 138.465C147.293 131.367 155.686 130.261 165.402 130.527C173.717 132.429 180.189 135.643 184.95 143.102C189.248 149.835 190.888 158.728 189.157 166.507Q188.99 167.25 188.786 167.984Q188.582 168.718 188.342 169.441Q188.102 170.164 187.826 170.874Q187.55 171.584 187.239 172.28Q186.928 172.976 186.583 173.655Q186.238 174.334 185.86 174.995Q185.482 175.657 185.071 176.298Q184.661 176.94 184.218 177.56Q183.776 178.181 183.304 178.779Q182.832 179.376 182.33 179.95Q181.829 180.523 181.299 181.071Q180.77 181.619 180.214 182.14Q179.658 182.661 179.077 183.153Q178.496 183.646 177.891 184.109Q177.286 184.572 176.659 185.005Q176.032 185.437 175.384 185.838C168.96 189.773 161.199 191.336 153.821 189.447C149.89 188.441 146.305 186.503 143.027 184.14Z"/>
	<path fill="#6EFFD0" d="M158.105 152.474C159.435 152.496 160.827 152.489 162.105 152.902C164.293 153.609 166.22 155.115 167.256 157.188Q167.442 157.568 167.587 157.965Q167.732 158.362 167.835 158.772Q167.937 159.182 167.997 159.601Q168.056 160.02 168.071 160.442Q168.086 160.865 168.057 161.286Q168.028 161.708 167.954 162.125Q167.881 162.541 167.765 162.947Q167.648 163.354 167.49 163.746C166.289 166.8 164.057 168.022 161.161 169.208C160.171 169.215 159.152 169.227 158.177 169.033C156.037 168.606 153.704 167.226 152.508 165.373C151.251 163.428 151.078 161.274 151.713 159.079C152.676 155.746 155.212 154.052 158.105 152.474Z"/>
	<path fill="#1C4957" d="M859.205 833.579C866.41 832.921 873.256 833.551 879.554 837.456C886.399 841.7 891.191 849.188 892.888 857.008C894.669 865.218 892.769 873.5 888.158 880.434C883.309 887.726 876.518 891.271 868.17 892.956C861.276 893.711 855.042 892.905 849.008 889.339C842.142 885.281 836.694 878.037 834.911 870.233C833.086 862.246 834.881 853.909 839.186 847.021C843.945 839.407 850.624 835.488 859.205 833.579Z"/>
	<path fill="#6EFFD0" d="M862.215 855.102C863.504 855.116 864.908 855.332 866.125 855.768C868.508 856.621 870.531 858.45 871.446 860.824C872.238 862.88 872.024 865.087 871.077 867.05C869.69 869.925 867.217 871.051 864.349 872.041C862.648 872.135 860.978 872.173 859.388 871.457C857.271 870.503 855.565 868.713 854.822 866.502Q854.688 866.098 854.595 865.682Q854.502 865.266 854.451 864.843Q854.4 864.42 854.391 863.995Q854.382 863.569 854.416 863.144Q854.45 862.719 854.525 862.3Q854.601 861.881 854.718 861.471Q854.835 861.062 854.993 860.666Q855.15 860.27 855.346 859.892C856.812 857.082 859.292 855.914 862.215 855.102Z"/>
	<path fill="#1C4957" d="M167.208 827.955C175.067 828.619 183.414 834.191 188.42 840.094C188.919 840.683 189.464 841.382 189.773 842.089L189.401 842.941L189.114 842.416C188.127 844.637 187.519 846.653 185.201 847.734C189.378 855.612 191.537 863.483 188.935 872.279Q188.731 872.971 188.493 873.652Q188.254 874.333 187.981 875.001Q187.708 875.669 187.401 876.322Q187.095 876.975 186.755 877.612Q186.415 878.249 186.044 878.867Q185.672 879.486 185.269 880.084Q184.867 880.683 184.434 881.261Q184.001 881.838 183.54 882.393Q183.078 882.947 182.589 883.478Q182.099 884.008 181.584 884.513Q181.068 885.018 180.527 885.495Q179.987 885.973 179.422 886.423Q178.858 886.872 178.271 887.293Q177.685 887.713 177.078 888.103Q176.47 888.492 175.844 888.851Q175.218 889.209 174.574 889.535C167.595 893.146 159.346 894.234 151.805 891.756C143.985 889.187 137.745 883.226 134.189 875.883C130.782 868.85 130.561 861.251 133.173 853.938C133.771 852.264 134.482 850.645 135.247 849.042C139.859 842.696 144.262 838.78 151.62 835.789C155.041 834.836 158.347 834.472 161.879 834.174C161.04 833.666 159.932 833.798 158.963 833.76L159.317 833.679L158.763 833.563C161.006 832.805 160.318 829.81 162.016 828.181C163.753 828.172 165.475 828.068 167.208 827.955Z"/>
	<path fill="#6EFFD0" d="M157.453 856.072C159.279 855.911 161.423 855.535 163.186 856.168C165.295 856.926 167.149 858.486 168.044 860.561C168.826 862.377 168.808 864.389 168.054 866.214C166.875 869.065 164.736 870.418 162.043 871.659C161.065 871.788 160.127 871.937 159.144 871.775C156.763 871.385 154.222 870.078 152.913 867.999Q152.694 867.645 152.513 867.271Q152.332 866.896 152.193 866.504Q152.053 866.112 151.955 865.707Q151.858 865.303 151.803 864.89Q151.749 864.477 151.739 864.061Q151.729 863.645 151.763 863.231Q151.797 862.816 151.875 862.407Q151.952 861.998 152.073 861.6C152.913 858.796 155.062 857.477 157.453 856.072Z"/>
	<path fill="#6EFFD0" d="M167.208 827.955C175.067 828.619 183.414 834.191 188.42 840.094C188.919 840.683 189.464 841.382 189.773 842.089L189.401 842.941L189.114 842.416C188.127 844.637 187.519 846.653 185.201 847.734C184.744 847.036 184.292 846.371 183.779 845.713C178.088 838.419 170.826 835.215 161.879 834.174C161.04 833.666 159.932 833.798 158.963 833.76L159.317 833.679L158.763 833.563C161.006 832.805 160.318 829.81 162.016 828.181C163.753 828.172 165.475 828.068 167.208 827.955Z"/>
	<path fill="#1C4957" d="M530.065 326.693L589.391 326.604C589.319 331.348 590.164 336.261 591.021 340.913C594.864 361.765 604.295 380.095 618.448 395.794C639.13 418.735 666.003 432.179 697.034 433.741Q697.481 464.096 697.311 494.453L530.035 494.637L530.043 384.282C530.036 365.124 529.492 345.839 530.065 326.693Z"/>
	<path fill="#1C4957" d="M530.086 529.137L697.161 529.024Q697.567 559.448 697.279 589.874C668.953 591.773 642.392 602.552 622.334 622.887C603.432 642.733 590.338 669.229 589.459 696.992L529.82 697.586C530.609 641.477 529.983 585.257 530.086 529.137Z"/>
	<path fill="#1C4957" d="M434.125 326.27L494.003 326.478L493.944 494.421L386.25 494.479L325.977 494.521L325.98 433.637Q328.313 433.531 330.64 433.331Q332.967 433.131 335.284 432.838Q337.601 432.545 339.905 432.158Q342.208 431.772 344.494 431.293Q346.78 430.814 349.045 430.244Q351.309 429.674 353.549 429.013Q355.79 428.352 358.001 427.601Q360.213 426.85 362.392 426.011Q364.572 425.172 366.716 424.246Q368.86 423.32 370.965 422.309Q373.071 421.297 375.133 420.202Q377.196 419.106 379.213 417.929Q381.23 416.751 383.198 415.493Q385.166 414.236 387.081 412.9Q388.997 411.564 390.858 410.152Q392.718 408.74 394.52 407.254C419.915 386.3 430.934 358.345 434.125 326.27Z"/>
	<path fill="#1C4957" d="M325.96 529.164L493.721 529.323L493.563 636.98C493.558 656.878 494.454 677.182 493.384 697.023L434.1 697.396C432.888 671.311 420.998 645.179 403.249 626.233C383.527 605.18 354.835 590.786 325.823 589.845L325.96 529.164Z"/>
	<path fill="#1C4957" d="M500.961 191.168C508.447 193.075 515.564 193.093 523.078 191.364C524.064 217.84 523.419 244.57 523.441 271.069L523.503 414.543L523.434 468.371C523.421 477.197 522.787 486.471 523.533 495.241C523.734 497.601 524.196 499.042 525.789 500.787C535.504 502.118 546.913 501.095 556.843 501.062L617.748 501.017L833.173 500.983C830.948 508.527 831.502 515.014 833.115 522.599L605.204 522.476C592.992 522.487 530.746 521.017 523.99 523.462C522.84 534.763 523.61 546.793 523.592 558.181L523.552 623.897L523.523 833.336C514.746 831.256 508.592 830.8 499.8 833.405L500.001 624.146L500.103 562.125C500.15 550.645 500.665 538.931 500.143 527.47C500.083 526.165 500.016 524.953 499.114 523.907C498.497 523.19 497.837 522.885 496.937 522.65C493.22 521.68 482.256 522.477 477.928 522.473L420.954 522.512L191.766 522.605C192.682 515.063 192.897 508.53 191.258 501.052L387.526 501.037L459.002 501.073C470.859 501.081 482.921 501.532 494.757 501.065C496.514 500.996 497.679 500.768 499.171 499.837C500.206 498.578 500.163 496.847 500.219 495.283C500.519 486.917 500.262 478.431 500.261 470.053L500.216 417.019L500.421 281.674Q500.257 236.418 500.961 191.168Z"/>
	<path fill="#1C4957" d="M692.295 218.703C692.497 218.679 692.697 218.646 692.9 218.629C721.304 216.334 748.94 226.19 770.501 244.587Q771.458 245.399 772.394 246.233Q773.33 247.068 774.246 247.926Q775.162 248.784 776.056 249.664Q776.95 250.544 777.822 251.445Q778.694 252.347 779.544 253.27Q780.394 254.193 781.221 255.137Q782.047 256.08 782.85 257.044Q783.654 258.008 784.433 258.991Q785.212 259.974 785.967 260.976Q786.722 261.978 787.452 262.999Q788.181 264.019 788.886 265.057Q789.59 266.095 790.269 267.15Q790.948 268.205 791.6 269.277Q792.253 270.349 792.879 271.436Q793.505 272.523 794.104 273.625Q794.702 274.728 795.274 275.845Q795.846 276.961 796.389 278.092Q796.933 279.222 797.449 280.366Q797.965 281.51 798.453 282.665Q798.94 283.821 799.399 284.989Q799.858 286.157 800.288 287.335Q800.718 288.514 801.119 289.703Q801.52 290.891 801.891 292.09Q802.263 293.288 802.604 294.495Q802.946 295.702 803.258 296.917Q803.57 298.132 803.852 299.355Q804.134 300.577 804.386 301.806Q804.637 303.035 804.859 304.27Q805.08 305.505 805.271 306.745Q805.462 307.985 805.622 309.229Q805.782 310.474 805.912 311.721Q806.041 312.969 806.14 314.22Q806.24 315.497 806.308 316.776Q806.376 318.055 806.413 319.336Q806.449 320.616 806.454 321.897Q806.459 323.178 806.433 324.459Q806.406 325.739 806.348 327.019Q806.29 328.299 806.201 329.577Q806.111 330.854 805.99 332.13Q805.87 333.405 805.717 334.677Q805.565 335.949 805.381 337.216Q805.198 338.484 804.983 339.747Q804.768 341.01 804.523 342.267Q804.277 343.524 804 344.775Q803.724 346.025 803.416 347.269Q803.109 348.513 802.771 349.748Q802.433 350.984 802.065 352.211Q801.697 353.438 801.298 354.655Q800.9 355.872 800.472 357.08Q800.044 358.287 799.586 359.483Q799.128 360.68 798.641 361.864Q798.154 363.049 797.638 364.222Q797.122 365.394 796.577 366.553Q796.032 367.713 795.459 368.858Q794.886 370.004 794.285 371.135Q793.684 372.266 793.055 373.382Q792.426 374.498 791.77 375.598Q791.114 376.698 790.43 377.782Q789.747 378.865 789.038 379.932Q788.328 380.998 787.593 382.047Q786.857 383.096 786.096 384.126Q785.335 385.156 784.548 386.167Q783.762 387.179 782.951 388.17Q782.14 389.162 781.305 390.133C763.575 410.68 738.756 424.974 711.38 427.075C710.879 427.144 710.378 427.22 709.875 427.269C683.306 429.875 655.359 419.901 634.837 403.163C614.121 386.268 598.852 360.033 596.35 333.234Q596.23 331.946 596.142 330.655Q596.053 329.364 595.997 328.071Q595.94 326.779 595.915 325.485Q595.89 324.191 595.897 322.897Q595.904 321.603 595.942 320.31Q595.98 319.017 596.051 317.725Q596.121 316.433 596.222 315.143Q596.324 313.853 596.458 312.566Q596.591 311.279 596.756 309.995Q596.921 308.712 597.117 307.433Q597.313 306.154 597.541 304.88Q597.768 303.607 598.027 302.339Q598.285 301.071 598.575 299.81Q598.865 298.549 599.185 297.295Q599.505 296.042 599.857 294.796Q600.208 293.551 600.589 292.314Q600.971 291.078 601.382 289.851Q601.794 288.625 602.235 287.408Q602.677 286.192 603.148 284.987Q603.62 283.782 604.12 282.589Q604.621 281.396 605.151 280.215Q605.681 279.035 606.239 277.868Q606.798 276.7 607.385 275.547Q607.971 274.394 608.586 273.256Q609.201 272.117 609.844 270.994Q610.487 269.871 611.157 268.764Q611.827 267.658 612.524 266.567Q613.221 265.477 613.944 264.404Q614.668 263.332 615.418 262.277Q616.167 261.222 616.942 260.186Q617.717 259.15 618.518 258.134Q619.318 257.117 620.143 256.12Q620.978 255.118 621.838 254.138Q622.697 253.157 623.581 252.198Q624.465 251.239 625.372 250.302Q626.279 249.366 627.21 248.452Q628.14 247.538 629.093 246.647Q630.045 245.757 631.02 244.89Q631.994 244.023 632.99 243.181Q633.986 242.339 635.002 241.522Q636.018 240.705 637.055 239.913Q638.091 239.122 639.147 238.356Q640.202 237.59 641.277 236.851Q642.351 236.112 643.444 235.4Q644.536 234.688 645.646 234.003Q646.755 233.318 647.882 232.661Q649.008 232.004 650.151 231.375Q651.293 230.746 652.451 230.145Q653.609 229.545 654.781 228.974Q655.953 228.402 657.139 227.86Q658.325 227.318 659.524 226.806Q660.724 226.293 661.935 225.811Q663.147 225.328 664.37 224.876Q665.593 224.423 666.827 224.002Q668.061 223.58 669.305 223.189Q670.549 222.798 671.802 222.438Q673.056 222.078 674.318 221.749Q675.58 221.421 676.85 221.123Q678.119 220.826 679.396 220.56Q680.673 220.295 681.956 220.061Q683.239 219.827 684.527 219.625Q685.816 219.423 687.109 219.254Q688.402 219.084 689.698 218.946Q690.995 218.808 692.295 218.703Z"/>
	<path fill="#6EFFD0" d="M698.415 261.311C699.407 259.927 699.94 259.265 701.565 258.687C703.115 258.917 704.055 259.364 704.973 260.693C705.629 261.64 706.143 262.706 706.616 263.751C715.523 264.388 749.625 268.088 755.891 272.577C757.345 275.865 758.173 279.384 759.271 282.801C762.367 292.442 764.327 298.967 765.664 309.113C765.898 310.89 766.427 317.965 767.395 318.72C768.832 319.842 768.994 319.954 769.22 321.762C768.732 323.156 767.809 324.004 767.303 325.311C765.673 329.518 764.867 341.504 763.214 347.384C760.816 355.91 756.743 364.167 755.199 372.892C743.203 376.323 731.119 379.431 718.649 380.43C715.802 380.658 707.853 380.109 705.793 381.801L705.324 383.165C704.966 383.495 704.663 383.808 704.222 384.045C703.186 384.6 701.927 384.752 700.844 384.243C699.467 383.595 699.023 382.543 698.451 381.253C688.861 381.028 679.609 380.32 670.198 378.288C663.417 376.824 656.794 374.744 650.004 373.287C645.041 362.444 640.222 351.531 637.517 339.861C636.338 334.775 637.089 328.801 635.322 323.966L634.025 323.446C633.351 322.53 632.806 321.949 633.064 320.702C633.403 319.062 634.396 318.702 635.657 317.918C636.688 315.663 636.259 312.103 636.62 309.598C637.114 306.175 637.848 302.732 638.66 299.37C640.927 289.98 644.913 281.328 648.828 272.546C658.169 268.031 672.813 266.188 683.303 265.186C687.24 264.81 691.962 264.867 695.734 263.902C697.225 263.521 697.578 262.501 698.415 261.311Z"/>
	<path fill="#A6FDFC" d="M700.407 375.774L704.527 375.813C704.505 376.746 704.379 377.642 704.248 378.564C703.355 379.583 703.264 379.717 701.97 380.069C700.653 379.538 700.501 379.434 699.665 378.289C699.68 376.97 699.65 376.838 700.407 375.774Z"/>
	<path fill="#1C4957" d="M752.225 283.32C757.112 287.863 759.868 311.259 760.552 318.476L744.909 318.402L736.006 318.392C741.738 307.069 747.286 295.008 752.225 283.32Z"/>
	<path fill="#1C4957" d="M736.092 324.597L760.986 324.336C759.744 334.117 757.854 343.271 754.689 352.622L751.748 360.42C747.199 348.252 740.549 336.899 736.092 324.597Z"/>
	<path fill="#1C4957" d="M651.54 281.326C653.826 285.075 655.443 289.746 657.247 293.786C660.949 302.074 664.664 310.341 668.868 318.39L658.375 318.338L641.873 318.296C642.992 305.362 645.739 293.01 651.54 281.326Z"/>
	<path fill="#1C4957" d="M641.685 324.176C650.993 324.405 660.323 324.327 669.635 324.371Q663.339 337.087 657.182 349.871C655.259 353.642 653.776 357.68 652.173 361.597C646.458 349.125 642.882 337.865 641.685 324.176Z"/>
	<path fill="#1C4957" d="M686.539 271.204L693.984 270.875C687.576 285.264 680.527 299.265 673.689 313.444L670.592 307.25C666.128 297.185 661.879 286.94 656.879 277.129C666.562 273.71 676.328 272.023 686.539 271.204Z"/>
	<path fill="#1C4957" d="M708.725 270.874C722.566 271.328 735.244 273.615 748.719 276.439C744.53 284.275 740.63 292.288 736.614 300.215C734.327 304.522 732.378 309.036 730.327 313.46C727.29 306.605 723.714 299.928 720.379 293.206C716.668 285.726 713.147 277.966 708.725 270.874Z"/>
	<path fill="#1C4957" d="M673.393 331.832C677.236 335.793 691.705 367.083 696.122 374.977C691.149 375.037 686.319 374.609 681.388 373.993C672.886 372.542 664.38 370.564 656.512 366.961C662.14 355.283 668.264 343.733 673.393 331.832Z"/>
	<path fill="#1C4957" d="M730.605 330.361C734.19 335.933 736.791 342.882 739.506 348.941C742.303 355.182 745.329 361.327 747.99 367.627C740.934 370.621 733.421 372.561 725.879 373.83C719.948 374.645 713.94 374.828 707.961 374.917C715.89 360.375 723.897 345.499 730.605 330.361Z"/>
	<path fill="#1C4957" d="M701.378 271.374C704.594 275.291 706.799 281.181 709.069 285.761C714.365 296.445 719.36 307.421 725.185 317.817C718.177 317.55 711.077 317.812 704.06 317.846L678.614 317.818C682.892 311.062 685.914 303.486 689.34 296.282C693.301 287.953 697.545 279.767 701.378 271.374Z"/>
	<path fill="#1C4957" d="M677.83 324.464C693.941 323.994 710.162 324.351 726.288 324.346C720.294 335.289 715.5 346.86 709.956 358.035C707.068 363.463 704.413 368.564 702.828 374.546C700.317 367.699 696.092 361.239 692.799 354.729C687.717 344.683 683.033 334.452 677.83 324.464Z"/>
	<path fill="#1C4957" d="M407.623 261.662C413.723 271.418 419.026 281 422.576 292.031C431.276 319.065 427.411 347.197 414.513 372.1C401.916 396.423 379.105 414.157 353.095 422.312Q351.85 422.71 350.596 423.077Q349.341 423.443 348.078 423.778Q346.815 424.113 345.544 424.416Q344.272 424.719 342.994 424.99Q341.715 425.261 340.43 425.5Q339.146 425.738 337.855 425.945Q336.564 426.151 335.269 426.324Q333.974 426.498 332.675 426.639Q331.375 426.78 330.073 426.888Q328.771 426.996 327.466 427.072Q326.161 427.147 324.855 427.189Q323.549 427.232 322.242 427.241Q320.935 427.251 319.628 427.227Q318.322 427.204 317.016 427.148Q315.71 427.091 314.406 427.002Q313.102 426.913 311.801 426.791Q310.5 426.669 309.202 426.515Q307.905 426.36 306.611 426.173Q305.318 425.985 304.03 425.765Q302.741 425.546 301.459 425.293Q300.177 425.041 298.901 424.757Q297.626 424.472 296.358 424.156Q295.09 423.839 293.83 423.491Q292.57 423.143 291.32 422.763Q290.069 422.383 288.829 421.972Q287.588 421.56 286.359 421.118Q285.129 420.676 283.911 420.203Q282.693 419.729 281.487 419.226Q280.281 418.722 279.088 418.188Q277.895 417.654 276.716 417.09Q275.537 416.526 274.373 415.933Q273.208 415.34 272.059 414.717Q270.904 414.102 269.765 413.458Q268.626 412.815 267.503 412.144Q266.38 411.472 265.274 410.773Q264.168 410.074 263.08 409.348Q261.992 408.622 260.922 407.87Q259.851 407.117 258.8 406.338Q257.749 405.56 256.717 404.755Q255.686 403.95 254.674 403.121Q253.663 402.291 252.672 401.436Q251.681 400.582 250.712 399.703Q249.743 398.825 248.796 397.922Q247.848 397.02 246.924 396.094Q245.999 395.169 245.097 394.221Q244.196 393.273 243.318 392.303Q242.44 391.333 241.586 390.341Q240.732 389.35 239.904 388.338Q239.075 387.326 238.271 386.294Q237.467 385.261 236.689 384.209Q235.911 383.158 235.159 382.087Q234.408 381.016 233.683 379.927Q232.957 378.838 232.259 377.732Q231.561 376.625 230.891 375.502Q230.221 374.378 229.578 373.239Q228.935 372.099 228.321 370.944Q227.707 369.789 227.122 368.619Q226.536 367.449 225.98 366.265Q225.423 365.081 224.896 363.883Q224.369 362.686 223.872 361.476Q223.375 360.266 222.907 359.044Q222.44 357.822 222.003 356.589Q221.566 355.355 221.16 354.112Q220.754 352.868 220.378 351.615C212.236 324.456 215.004 296.463 228.621 271.518Q229.248 270.384 229.903 269.266Q230.557 268.149 231.239 267.047Q231.921 265.946 232.63 264.861Q233.339 263.777 234.074 262.71Q234.809 261.643 235.57 260.595Q236.331 259.547 237.118 258.517Q237.904 257.488 238.716 256.478Q239.528 255.468 240.364 254.479Q241.2 253.489 242.06 252.521Q242.92 251.552 243.804 250.605Q244.688 249.658 245.595 248.732Q246.501 247.807 247.43 246.904Q248.36 246.001 249.311 245.122Q250.262 244.242 251.234 243.386Q252.206 242.53 253.199 241.698Q254.193 240.866 255.206 240.059Q256.219 239.251 257.252 238.469Q258.284 237.687 259.336 236.93Q260.387 236.174 261.457 235.443Q262.527 234.712 263.615 234.008Q264.702 233.304 265.806 232.627Q266.911 231.95 268.031 231.3Q269.152 230.65 270.288 230.028Q271.425 229.406 272.576 228.812Q273.727 228.217 274.893 227.652Q276.058 227.086 277.237 226.549Q278.416 226.012 279.608 225.504Q280.8 224.997 282.004 224.518Q283.208 224.04 284.423 223.591Q285.638 223.143 286.864 222.724Q288.09 222.305 289.326 221.917Q290.562 221.528 291.807 221.17C322.202 212.288 349.255 217.788 376.418 232.781C376.446 232.755 376.468 232.723 376.501 232.705C378.31 231.721 381.578 235.853 384.27 236.65C385.236 235.781 386.598 234.952 386.96 233.701C385.782 232.378 384.78 231.32 383.183 230.502C382.363 230.081 381.81 229.87 381.215 229.139L382.018 228.711C392.282 234.319 405.088 246.903 411.528 256.335C409.188 255.898 407.632 252.977 406.269 251.122L406.666 251.614C405.271 253.143 405.734 255.007 405.175 256.986C405.791 258.276 406.714 259.071 407.736 260.03L407.996 261.279L407.623 261.662Z"/>
	<path fill="#6EFFD0" d="M376.418 232.781C376.446 232.755 376.468 232.723 376.501 232.705C378.31 231.721 381.578 235.853 384.27 236.65C385.236 235.781 386.598 234.952 386.96 233.701C385.782 232.378 384.78 231.32 383.183 230.502C382.363 230.081 381.81 229.87 381.215 229.139L382.018 228.711C392.282 234.319 405.088 246.903 411.528 256.335C409.188 255.898 407.632 252.977 406.269 251.122L406.666 251.614C405.271 253.143 405.734 255.007 405.175 256.986C405.791 258.276 406.714 259.071 407.736 260.03L407.996 261.279L407.623 261.662C404.896 259.371 399.907 252.396 396.961 249.244C391.038 242.906 383.547 237.686 376.418 232.781Z"/>
	<path fill="#6EFFD0" d="M319.058 238.435C320.196 238.317 321.269 238.273 322.391 238.526C324.087 238.909 325.166 240.202 326.272 241.449C331.495 247.337 336.222 253.816 341.147 259.968L369.333 295.235L384.961 314.807C388.303 318.99 391.922 323.098 394.673 327.702C392.315 331.828 388.922 335.582 385.794 339.139C380.836 344.775 375.471 350.053 370.354 355.545Q354.668 372.55 338.68 389.273C333.689 394.461 327.858 402.137 321.988 405.968C320.785 406.03 319.748 406.029 318.633 405.524C315.455 404.084 257.548 340.635 250.888 332.619C249.299 330.706 247.864 328.732 246.835 326.457C249.763 321.196 254.22 316.352 257.994 311.665C266.233 301.43 274.723 291.435 283.044 281.275Q293.868 267.871 304.843 254.589C308.489 250.101 311.964 245.175 315.92 240.968C316.864 239.965 317.904 239.177 319.058 238.435Z"/>
	<path fill="#1B6B42" d="M371.272 342.959L371.61 343.217C371.281 345.088 329.553 388.305 325.013 393.374L324.803 393.166C324.539 386.382 324.899 379.467 324.992 372.672C340.753 363.12 356.326 353.754 371.272 342.959Z"/>
	<path fill="#1B6B42" d="M270.007 343.297C274.033 344.641 278.401 348.236 282.026 350.51C294.22 358.161 306.187 365.811 317.94 374.138Q317.934 384.693 318.112 395.247C308.643 384.734 299.195 374.152 289.505 363.845C283.027 356.955 276.198 350.467 270.007 343.297Z"/>
	<path fill="#1B6B42" d="M256.14 325.542C261.405 325.757 310.602 345.753 317.896 348.851L317.935 365.226C312.562 360.828 306.463 357.383 300.568 353.747C292.821 348.968 285.124 344.148 277.186 339.687C271.052 336.24 264.539 333.009 258.883 328.807C257.526 327.799 256.719 327.146 256.14 325.542Z"/>
	<path fill="#1B6B42" d="M381.678 324.449C382.834 324.41 383.46 324.583 384.415 325.272C385.358 325.95 385.73 326.372 385.862 327.55C383.793 329.639 380.321 330.884 377.685 332.19C360.345 340.778 344.285 352.022 327.969 362.389L325.012 364.48L324.951 348.525C333.994 343.961 343.875 340.528 353.247 336.665C362.786 332.734 372.127 328.365 381.678 324.449Z"/>
	<path fill="#1C4957" d="M324.563 250.735C327.519 252.958 332.36 260.292 334.955 263.483C349.572 281.459 363.477 300.077 378.294 317.861C372.77 320.398 367.18 322.807 361.623 325.272C349.586 330.655 336.513 334.73 324.915 340.931C324.936 310.907 325.559 280.742 324.563 250.735Z"/>
	<path fill="#1C4957" d="M317.212 250.312C318.476 253.32 317.793 332.329 317.81 341.5C304.812 335.444 290.88 330.873 277.561 325.501Q269.51 322.256 261.425 319.095C278.823 295.267 299.108 273.601 317.212 250.312Z"/>
	<path fill="#132638" d="M694.351 596.21C719.941 593.43 747.464 603.577 767.433 619.165C788.639 635.717 803.622 663.347 806.703 690.02Q806.861 691.322 806.986 692.628Q807.111 693.934 807.203 695.242Q807.296 696.551 807.356 697.861Q807.416 699.172 807.443 700.483Q807.47 701.795 807.464 703.106Q807.458 704.418 807.42 705.729Q807.381 707.04 807.31 708.35Q807.239 709.66 807.135 710.968Q807.031 712.275 806.894 713.58Q806.758 714.884 806.589 716.185Q806.42 717.486 806.218 718.782Q806.016 720.078 805.783 721.369Q805.549 722.66 805.283 723.944Q805.017 725.229 804.719 726.506Q804.421 727.784 804.091 729.053Q803.761 730.323 803.4 731.584Q803.038 732.845 802.645 734.096Q802.253 735.348 801.829 736.589Q801.405 737.831 800.95 739.061Q800.495 740.291 800.01 741.51Q799.524 742.729 799.009 743.935Q798.493 745.141 797.947 746.334Q797.402 747.527 796.826 748.706Q796.251 749.885 795.647 751.049Q795.042 752.213 794.409 753.361Q793.775 754.51 793.113 755.643Q792.452 756.775 791.762 757.891Q791.072 759.006 790.354 760.104Q789.636 761.202 788.891 762.282Q788.146 763.362 787.375 764.423Q786.603 765.484 785.805 766.525Q785.008 767.566 784.184 768.587C765.26 792.08 738.863 804.8 709.169 807.927C681.511 809.156 655.833 802.051 634.194 784.303C612.868 766.812 598.152 739.002 595.538 711.608C592.976 684.751 603.272 654.996 620.399 634.391C639.208 611.763 665.124 598.796 694.351 596.21Z"/>
	<path fill="#6EFFD0" d="M686.021 632.459C687.625 632.619 689.226 632.911 690.332 634.236C693.568 638.113 691.956 649.303 691.849 654.383C695.631 654.243 699.421 654.284 703.205 654.28C703.119 649.42 701.627 637.817 704.908 634.14C705.688 633.266 706.508 632.731 707.706 632.686C709.26 632.628 710.484 633.158 711.577 634.271C715.018 637.775 713.637 649.512 713.614 654.381C717.16 654.377 720.47 654.661 723.891 655.662C731.145 657.784 737.679 662.318 741.201 669.149C744.09 674.753 744.755 681.602 742.792 687.614C740.416 694.889 735.468 698.199 729.083 701.593C734.422 702.843 739.323 704.759 743.411 708.529Q743.849 708.929 744.267 709.35Q744.684 709.772 745.08 710.214Q745.476 710.655 745.849 711.117Q746.223 711.578 746.572 712.057Q746.922 712.536 747.247 713.032Q747.573 713.528 747.873 714.04Q748.173 714.552 748.447 715.078Q748.721 715.604 748.968 716.143Q749.216 716.682 749.436 717.233Q749.656 717.784 749.848 718.345Q750.04 718.907 750.204 719.477Q750.368 720.047 750.503 720.625Q750.639 721.202 750.745 721.786Q750.851 722.37 750.927 722.958Q751.004 723.546 751.051 724.138Q751.099 724.729 751.116 725.322C751.367 732.267 748.496 738.942 743.691 743.899C735.4 752.453 724.79 753.925 713.463 754.17C713.686 759.062 713.987 763.897 713.162 768.747C712.723 769.483 712.281 770.191 711.73 770.851C710.726 772.054 709.058 772.948 707.452 772.847C706.513 772.788 705.917 772.462 705.298 771.806C702.199 768.515 703.416 758.859 703.475 754.535L691.414 754.563C691.532 758.887 692.774 768.25 689.985 771.691C689.221 772.633 688.363 773.249 687.137 773.411C685.678 773.603 684.239 773.293 683.148 772.245C679.553 768.788 680.927 758.68 681.022 753.883C675.318 753.97 658.987 755.404 654.622 751.826C653.756 751.117 653.115 750.298 653.146 749.134C653.182 747.799 653.815 746.283 654.835 745.389C658.422 742.248 668.79 743.804 673.539 743.964Q673.693 704.236 673.373 664.508C668.818 664.564 662.091 665.639 657.81 664.179C655.855 663.512 654.614 661.35 653.813 659.59C653.86 658.356 653.731 657.883 654.65 656.957C658.339 653.235 675.517 654.599 681.088 654.594C681.016 649.257 680.095 642.286 681.603 637.227C682.39 634.588 683.642 633.681 686.021 632.459Z"/>
	<path fill="#1C4957" d="M692.583 665.513C700.823 665.238 711.675 664.122 718.599 669.576C721.694 672.014 723.685 675.882 724.092 679.787C724.645 685.103 722.165 689.565 718.96 693.556C711.839 700.088 701.396 698.117 692.439 697.994L692.583 665.513Z"/>
	<path fill="#1C4957" d="M692.596 708.342C702.223 708.269 715.263 706.478 723.133 712.966C726.509 715.749 728.838 719.809 729.21 724.199C729.672 729.645 727.247 733.775 723.955 737.814C714.942 745.218 703.519 743.641 692.582 743.717Q692.703 726.03 692.596 708.342Z"/>
	<path fill="#1C4957" d="M314.312 596.701C341.469 594.492 369.124 605.074 389.721 622.547C410.781 640.412 425.372 668.169 427.587 695.75Q427.695 697.019 427.771 698.291Q427.847 699.562 427.892 700.835Q427.937 702.108 427.95 703.381Q427.964 704.655 427.946 705.928Q427.928 707.202 427.878 708.475Q427.828 709.747 427.747 711.018Q427.666 712.289 427.554 713.558Q427.441 714.827 427.298 716.092Q427.154 717.358 426.979 718.619Q426.804 719.881 426.598 721.138Q426.392 722.395 426.155 723.646Q425.918 724.898 425.65 726.143Q425.382 727.388 425.083 728.626Q424.784 729.864 424.455 731.095Q424.126 732.325 423.766 733.547Q423.407 734.769 423.017 735.981Q422.628 737.194 422.208 738.397Q421.789 739.599 421.34 740.791Q420.891 741.983 420.413 743.163Q419.934 744.344 419.427 745.512Q418.919 746.68 418.383 747.836Q417.847 748.991 417.283 750.133Q416.718 751.274 416.126 752.402Q415.533 753.529 414.913 754.642Q414.293 755.754 413.645 756.851Q412.998 757.948 412.323 759.028Q411.649 760.109 410.948 761.172Q410.247 762.235 409.52 763.281Q408.793 764.327 408.04 765.354Q407.287 766.382 406.51 767.391Q405.732 768.399 404.929 769.388Q404.127 770.377 403.3 771.346C385.604 791.954 356.582 805.796 329.623 807.953Q328.357 808.05 327.089 808.118Q325.821 808.185 324.552 808.223Q323.283 808.261 322.013 808.269Q320.744 808.278 319.474 808.257Q318.204 808.235 316.936 808.185Q315.667 808.134 314.4 808.054Q313.133 807.973 311.868 807.863Q310.603 807.754 309.341 807.614Q308.079 807.475 306.82 807.306Q305.562 807.138 304.308 806.94Q303.053 806.742 301.804 806.515Q300.555 806.288 299.311 806.032Q298.068 805.776 296.83 805.491Q295.593 805.206 294.363 804.892Q293.132 804.578 291.91 804.236Q290.687 803.893 289.473 803.522Q288.258 803.152 287.053 802.753Q285.847 802.354 284.652 801.927Q283.456 801.5 282.27 801.045Q281.085 800.591 279.91 800.109Q278.736 799.626 277.573 799.117Q276.409 798.608 275.259 798.071Q274.108 797.535 272.97 796.972Q271.832 796.409 270.707 795.819Q269.582 795.23 268.472 794.615Q267.361 793.999 266.265 793.358Q265.169 792.717 264.089 792.05Q263.008 791.384 261.943 790.692Q260.878 790.001 259.829 789.285Q258.781 788.569 257.749 787.828Q256.718 787.088 255.704 786.324Q254.69 785.56 253.694 784.772C232.152 767.738 218.183 741.116 215.166 713.921C212.063 685.954 221.555 657.464 239.065 635.689C257.225 613.108 285.879 599.66 314.312 596.701Z"/>
	<path fill="#6EFFD0" d="M320.917 628.378C330.497 632.015 341.9 640.367 350.849 645.822C362.581 652.976 374.599 659.617 386.094 667.166C386.897 677.459 386.397 688.188 386.333 698.52C386.254 711.001 386.453 723.579 385.87 736.045C380.015 741.433 372.52 745.34 365.717 749.409C350.793 758.337 334.675 766.721 320.792 777.123C298.746 764.3 277.65 749.645 255.249 737.375L254.981 668.168C260.828 662.343 270.16 658.158 277.314 653.95Q299.218 641.339 320.917 628.378Z"/>
	<path fill="#1C4957" d="M316.857 708.932C317.524 714.943 316.973 721.652 316.974 727.729L316.97 766.404C307.106 760.709 297.497 754.346 287.757 748.417C281.153 744.576 274.501 740.797 268.081 736.654Q282.408 727.816 297.235 719.844C303.775 716.303 310.684 713.081 316.857 708.932Z"/>
	<path fill="#1C4957" d="M324.071 708.892C340.182 718.243 356.787 726.563 372.627 736.412C367.011 740.571 360.907 744.016 354.911 747.59Q339.339 756.602 324.018 766.037L324.071 708.892Z"/>
	<path fill="#1C4957" d="M316.562 639.089C317.752 641.375 317.087 690.234 317.21 697.228C307.707 690.49 297.306 685.044 287.215 679.254Q277.271 673.393 267.064 668.004C274.648 663.968 281.926 659.388 289.343 655.06C298.428 649.76 307.627 644.64 316.562 639.089Z"/>
	<path fill="#1C4957" d="M378.972 674.076C380.046 676.163 379.274 724.405 379.407 731.529C369.329 725.086 358.377 719.511 347.852 713.82C341.017 710.346 334.382 706.432 327.76 702.571C338.43 696.991 348.884 691.076 359.395 685.208C365.948 681.55 372.665 678.152 378.972 674.076Z"/>
	<path fill="#1C4957" d="M262.042 673.238L312.634 702.645Q303.792 707.898 294.777 712.846C283.97 719.121 273.23 726.135 262.049 731.662L262.042 673.238Z"/>
	<path fill="#1C4957" d="M323.994 638.174C341.492 646.973 357.939 658.251 374.672 668.419C368.812 671.931 362.748 675.167 356.791 678.516C345.762 684.272 334.981 690.592 324.003 696.468L323.994 638.174Z"/>
	<path fill="#1C4957" d="M189.301 529.133C232.643 528.855 276.059 529.93 319.383 529.325Q319.503 559.625 319.161 589.923C311.79 590.392 304.493 591.028 297.27 592.666C274.178 597.904 251.413 611.269 235.766 629.035Q234.855 630.09 233.97 631.166Q233.086 632.243 232.227 633.341Q231.369 634.439 230.538 635.557Q229.707 636.676 228.903 637.814Q228.099 638.953 227.324 640.11Q226.548 641.268 225.801 642.444Q225.054 643.621 224.336 644.815Q223.618 646.009 222.929 647.22Q222.24 648.432 221.581 649.66Q220.922 650.888 220.293 652.131Q219.664 653.375 219.066 654.633Q218.468 655.892 217.9 657.165Q217.333 658.437 216.797 659.724Q216.26 661.01 215.756 662.309Q215.251 663.608 214.779 664.919Q214.306 666.23 213.865 667.552Q213.425 668.874 213.016 670.206Q212.608 671.539 212.233 672.88Q211.857 674.222 211.514 675.573Q211.172 676.924 210.862 678.283Q210.552 679.641 210.276 681.007Q210 682.373 209.757 683.745Q209.514 685.117 209.304 686.495Q209.095 687.873 208.919 689.255Q208.744 690.638 208.602 692.024Q208.46 693.41 208.352 694.8Q208.244 696.189 208.17 697.58Q208.096 698.972 208.056 700.365Q208.016 701.758 208.01 703.151Q208.004 704.545 208.032 705.938Q208.06 707.331 208.122 708.724Q208.184 710.116 208.28 711.506Q208.369 712.881 208.492 714.253Q208.615 715.625 208.773 716.993Q208.931 718.361 209.123 719.726Q209.315 721.09 209.541 722.448Q209.767 723.807 210.028 725.16Q210.288 726.513 210.582 727.858Q210.876 729.204 211.204 730.542Q211.532 731.88 211.894 733.209Q212.255 734.539 212.65 735.858Q213.044 737.178 213.472 738.487Q213.9 739.797 214.36 741.095Q214.821 742.393 215.314 743.68Q215.807 744.966 216.332 746.24Q216.857 747.513 217.414 748.773Q217.97 750.033 218.559 751.279Q219.147 752.524 219.767 753.755Q220.386 754.985 221.036 756.199Q221.686 757.414 222.367 758.612Q223.047 759.809 223.758 760.99Q224.468 762.17 225.208 763.332Q225.947 764.494 226.716 765.637Q227.485 766.78 228.282 767.904Q229.079 769.027 229.904 770.13Q230.729 771.233 231.582 772.315Q232.434 773.397 233.314 774.457Q234.193 775.518 235.099 776.555Q236.005 777.593 236.937 778.608Q237.868 779.623 238.825 780.614Q239.782 781.605 240.763 782.571Q241.745 783.538 242.75 784.48Q243.755 785.421 244.784 786.338Q245.813 787.254 246.864 788.144Q247.936 789.054 249.03 789.938Q250.124 790.821 251.24 791.677Q252.355 792.534 253.491 793.362Q254.628 794.191 255.784 794.991Q256.94 795.792 258.116 796.563Q259.292 797.335 260.486 798.077Q261.68 798.82 262.892 799.533Q264.104 800.246 265.334 800.928Q266.563 801.611 267.809 802.264Q269.055 802.916 270.316 803.538Q271.578 804.159 272.854 804.749Q274.13 805.34 275.421 805.898Q276.711 806.457 278.015 806.984Q279.319 807.51 280.635 808.005Q281.952 808.5 283.28 808.961Q284.608 809.423 285.947 809.853Q287.287 810.282 288.636 810.678Q289.985 811.074 291.344 811.437Q292.703 811.799 294.07 812.129Q295.437 812.458 296.812 812.753Q298.187 813.049 299.569 813.31Q300.95 813.572 302.338 813.799Q303.726 814.027 305.119 814.22Q306.512 814.413 307.909 814.572Q309.306 814.731 310.707 814.855Q312.108 814.98 313.511 815.07Q314.914 815.16 316.319 815.215Q317.725 815.271 319.131 815.291Q320.537 815.312 321.943 815.298Q323.349 815.284 324.755 815.236Q326.16 815.187 327.564 815.104Q328.968 815.021 330.369 814.904Q331.786 814.785 333.199 814.632Q334.613 814.478 336.022 814.29Q337.431 814.103 338.835 813.88Q340.24 813.658 341.638 813.401Q343.036 813.145 344.428 812.854Q345.82 812.563 347.204 812.239Q348.588 811.914 349.964 811.556Q351.34 811.198 352.707 810.806Q354.073 810.414 355.43 809.989Q356.787 809.564 358.132 809.106Q359.478 808.647 360.813 808.157Q362.147 807.666 363.469 807.142Q364.791 806.619 366.099 806.063Q367.408 805.508 368.703 804.921Q369.998 804.333 371.278 803.714Q372.558 803.096 373.822 802.446Q375.087 801.796 376.335 801.115Q377.583 800.435 378.814 799.724Q380.046 799.013 381.259 798.272Q382.473 797.531 383.668 796.761Q384.863 795.991 386.038 795.192Q387.214 794.393 388.37 793.565Q389.526 792.737 390.662 791.881Q391.797 791.026 392.911 790.143Q394.025 789.259 395.117 788.349Q396.21 787.439 397.279 786.503Q398.349 785.566 399.395 784.603Q400.442 783.641 401.465 782.653Q402.487 781.666 403.485 780.653Q404.483 779.641 405.457 778.604Q406.43 777.568 407.377 776.508Q408.325 775.448 409.246 774.365Q410.766 772.533 412.205 770.636Q413.644 768.74 415.001 766.784Q416.358 764.828 417.629 762.815Q418.9 760.802 420.083 758.736Q421.267 756.671 422.36 754.556Q423.454 752.442 424.455 750.282Q425.457 748.122 426.364 745.921Q427.272 743.721 428.084 741.483Q428.896 739.245 429.612 736.975Q430.327 734.704 430.944 732.405Q431.561 730.105 432.078 727.782Q432.596 725.458 433.013 723.114Q433.43 720.771 433.746 718.411Q434.061 716.051 434.276 713.68Q434.49 711.31 434.602 708.932Q434.713 706.554 434.723 704.173L493.481 704.022L493.151 836.414C483.134 842.973 478.382 851.241 475.773 862.776L283.754 862.907C254.909 862.922 226 862.428 197.163 862.846C196.174 855.417 194.973 847.877 189.773 842.089C189.464 841.382 188.919 840.683 188.42 840.094C183.414 834.191 175.067 828.619 167.208 827.955Q164.687 827.628 162.174 827.245C161.254 818.876 161.762 809.993 161.72 801.561L161.728 745.929C161.514 680.076 162.341 614.167 161.612 548.325C172.738 545.878 181.072 542.154 187.411 532.271Q188.409 530.734 189.301 529.133Z"/>
	<path fill="#1C4957" d="M197.104 161.05L476.322 160.99C478.986 173.243 483.303 181.082 493.922 188.093L494.18 320.011L433.556 319.916C432.279 298.397 426.093 272.959 411.528 256.335C405.088 246.903 392.282 234.319 382.018 228.711C365.445 214.848 331.762 208.963 310.642 210.906Q309.282 211.027 307.924 211.183Q306.567 211.338 305.215 211.526Q303.862 211.715 302.514 211.936Q301.166 212.158 299.824 212.413Q298.483 212.668 297.147 212.956Q295.812 213.244 294.485 213.565Q293.157 213.886 291.838 214.24Q290.518 214.593 289.208 214.979Q287.898 215.365 286.598 215.783Q285.297 216.202 284.008 216.652Q282.718 217.102 281.44 217.584Q280.162 218.066 278.896 218.579Q277.631 219.092 276.378 219.637Q275.125 220.181 273.886 220.756Q272.647 221.331 271.423 221.937Q270.199 222.542 268.99 223.178Q267.78 223.813 266.587 224.478Q265.395 225.143 264.218 225.838Q263.042 226.532 261.883 227.255Q260.725 227.979 259.584 228.73Q258.444 229.482 257.322 230.261Q256.2 231.041 255.098 231.848Q253.996 232.655 252.915 233.489Q251.833 234.322 250.772 235.183Q249.711 236.043 248.672 236.929Q247.632 237.816 246.615 238.727Q245.598 239.639 244.604 240.575Q243.609 241.512 242.638 242.472Q241.668 243.433 240.721 244.417Q239.774 245.402 238.851 246.409Q237.929 247.417 237.032 248.446Q236.135 249.476 235.263 250.528C215.922 273.79 206.623 302.938 209.616 333.096C212.51 362.254 228.019 390.172 250.746 408.549C269.432 423.659 295.074 434.476 319.416 434.068L319.457 494.54L233.463 494.43C218.652 494.419 203.666 493.937 188.873 494.474C183.847 485.458 176.896 479.956 166.915 477.153Q164.433 476.435 161.879 476.044L161.358 197.207C172.601 195.647 182.206 191.521 189.198 182.231C193.911 175.968 196.177 168.752 197.104 161.05Z"/>
	<path fill="#132638" d="M703.208 529.222L835.366 529.118Q835.785 529.818 836.25 530.489C843.068 540.516 851.054 545.037 862.862 547.26L862.984 826.559C854.773 827.545 847.696 829.647 841.232 835.03C832.63 842.194 828.71 852.115 827.695 863.017C798.345 863.343 768.953 862.967 739.597 862.973L547.218 863.008C547.126 861.083 546.934 859.212 546.48 857.334C544.254 848.133 537.841 840.89 530.021 835.912L529.939 800.375C529.832 768.27 530.245 736.153 529.844 704.051L589.045 704.026C590.167 730.658 599.042 755.227 616.352 775.605C636.19 798.957 662.291 812.244 692.738 814.65C722.033 816.966 750.928 808.126 773.249 788.953C795.548 769.799 810.858 741.135 813.071 711.746Q813.18 710.35 813.256 708.951Q813.331 707.552 813.371 706.152Q813.412 704.752 813.418 703.351Q813.425 701.95 813.397 700.55Q813.368 699.149 813.306 697.75Q813.244 696.351 813.147 694.953Q813.05 693.556 812.919 692.161Q812.788 690.767 812.622 689.376Q812.457 687.985 812.257 686.598Q812.058 685.212 811.824 683.83Q811.591 682.449 811.324 681.074Q811.056 679.699 810.755 678.331Q810.454 676.963 810.12 675.603Q809.785 674.243 809.417 672.891Q809.049 671.54 808.649 670.198Q808.248 668.855 807.814 667.524Q807.38 666.192 806.914 664.871Q806.447 663.55 805.949 662.241Q805.45 660.932 804.919 659.636Q804.389 658.339 803.826 657.056Q803.264 655.774 802.67 654.505Q802.077 653.236 801.452 651.982Q800.827 650.729 800.172 649.491Q799.517 648.253 798.831 647.031Q798.146 645.809 797.43 644.605Q796.715 643.401 795.97 642.214Q795.226 641.028 794.452 639.86Q793.679 638.692 792.877 637.544Q792.075 636.396 791.245 635.267Q790.415 634.139 789.557 633.031Q788.7 631.924 787.815 630.837Q786.931 629.751 786.02 628.687C763.898 603.279 736.496 591.893 703.393 589.638Q703.068 559.431 703.208 529.222Z"/>
	<defs>
		<linearGradient id="gradient_1" gradientUnits="userSpaceOnUse" x1="865.7923" y1="321.99057" x2="531.01831" y2="333.53323">
			<stop offset="0" stop-color="#132638"/>
			<stop offset="1" stop-color="#1C4957"/>
		</linearGradient>
	</defs>
	<path fill="url(#gradient_1)" d="M566.212 160.74L766.275 160.607Q796.522 160.817 826.77 160.615C827.87 169.263 830.393 177.095 836.115 183.841C843.204 192.2 851.817 195.612 862.563 196.419C863.701 289.678 862.525 382.992 862.955 476.26C861.608 476.47 860.295 476.744 858.976 477.086C848.613 479.771 841.132 485.578 835.769 494.78C791.763 493.807 747.597 494.764 703.565 494.56Q703.663 464.332 703.107 434.108C712.793 433.489 721.954 432.382 731.348 429.794C746.949 424.886 762.139 417.389 774.355 406.371C796.773 386.151 811.538 358.309 812.903 327.9Q812.951 326.54 812.966 325.18Q812.981 323.82 812.962 322.459Q812.944 321.099 812.893 319.739Q812.841 318.38 812.757 317.022Q812.672 315.664 812.555 314.309Q812.437 312.954 812.287 311.602Q812.136 310.249 811.953 308.901Q811.769 307.553 811.553 306.21Q811.337 304.867 811.088 303.53Q810.839 302.192 810.557 300.861Q810.276 299.53 809.962 298.206Q809.648 296.882 809.302 295.567Q808.956 294.251 808.579 292.944Q808.201 291.637 807.791 290.34Q807.381 289.042 806.94 287.755Q806.499 286.469 806.027 285.193Q805.555 283.917 805.051 282.653Q804.548 281.389 804.014 280.138Q803.48 278.886 802.916 277.648Q802.352 276.41 801.758 275.187Q801.163 273.963 800.54 272.754Q799.916 271.545 799.263 270.351Q798.609 269.158 797.927 267.981Q797.245 266.804 796.535 265.643Q795.824 264.483 795.086 263.341Q794.347 262.198 793.581 261.074Q792.815 259.95 792.022 258.845Q791.228 257.739 790.408 256.654Q789.588 255.568 788.742 254.503Q787.896 253.438 787.024 252.393Q786.152 251.349 785.255 250.326Q784.358 249.304 783.436 248.303C763.418 226.417 734.048 213.348 704.509 212.113C675.563 210.902 646.243 222.483 625.071 242.09Q624.065 243.027 623.083 243.989Q622.101 244.95 621.143 245.936Q620.186 246.922 619.253 247.931Q618.319 248.94 617.411 249.972Q616.504 251.004 615.622 252.058Q614.74 253.112 613.884 254.188Q613.029 255.264 612.2 256.36Q611.371 257.457 610.57 258.574Q609.769 259.69 608.995 260.827Q608.222 261.963 607.477 263.118Q606.732 264.273 606.016 265.447Q605.3 266.62 604.613 267.81Q603.927 269.001 603.27 270.208Q602.613 271.416 601.986 272.639Q601.359 273.862 600.763 275.1Q600.166 276.339 599.601 277.591Q599.035 278.844 598.501 280.11Q597.966 281.377 597.464 282.656Q596.961 283.935 596.49 285.227Q596.019 286.518 595.581 287.82Q595.142 289.123 594.736 290.436Q594.329 291.749 593.956 293.072Q593.582 294.395 593.241 295.726Q592.901 297.058 592.593 298.397Q592.286 299.737 592.011 301.084Q591.737 302.431 591.496 303.784Q591.255 305.137 591.048 306.496Q590.841 307.854 590.667 309.218Q590.494 310.581 590.354 311.949Q590.214 313.316 590.109 314.686Q590.003 316.057 589.931 317.429Q589.86 318.802 589.822 320.176C569.907 319.84 549.942 320.023 530.021 319.956L529.825 228.667C529.754 215.222 530.201 201.709 529.675 188.281C540.108 180.674 545.451 173.887 547.839 161.046L566.212 160.74Z"/>
</svg>
